<?xml version="1.0" standalone="no"?>
<!DOCTYPE svg PUBLIC "-//W3C//DTD SVG 20010904//EN"
 "http://www.w3.org/TR/2001/REC-SVG-20010904/DTD/svg10.dtd">
<svg version="1.0" xmlns="http://www.w3.org/2000/svg"
 width="263.000000pt" height="300.000000pt" viewBox="0 0 263.000000 300.000000"
 preserveAspectRatio="xMidYMid meet">

<g transform="translate(0.000000,300.000000) scale(0.100000,-0.100000)"
fill="#000000" stroke="none">
<path d="M1130 2184 c-14 -2 -55 -9 -92 -15 l-68 -11 0 -56 c0 -113 -29 -161
-91 -148 -25 5 -31 1 -45 -26 -15 -29 -16 -47 -5 -168 14 -176 15 -170 -10
-170 -36 0 -59 -19 -59 -50 0 -37 26 -63 57 -57 14 2 23 -1 23 -8 0 -6 9 -20
20 -30 23 -21 14 -39 -25 -49 -14 -4 -25 -11 -25 -17 0 -5 -16 -17 -36 -25
l-36 -15 26 -20 c25 -20 25 -21 20 -132 -2 -62 -7 -125 -10 -140 -5 -24 -3
-28 13 -26 10 2 23 0 29 -3 6 -4 51 -1 100 7 l89 14 57 -62 c50 -54 58 -59 73
-47 14 12 25 5 90 -60 l74 -73 48 41 c26 22 63 56 82 76 31 32 36 34 51 21 15
-14 21 -11 62 33 24 26 53 60 62 75 21 30 34 32 91 13 22 -7 61 -16 86 -19
l46 -6 1 131 c1 116 3 134 21 159 12 16 21 30 21 32 0 3 -29 13 -65 22 -71 20
-90 42 -61 74 10 10 14 25 10 35 -5 14 -2 16 20 10 32 -8 66 18 66 50 0 33
-28 66 -56 66 l-25 0 2 149 c1 140 -1 151 -23 185 -15 24 -28 34 -39 30 -24
-7 -65 14 -79 42 -7 13 -16 51 -19 86 l-6 63 -40 7 c-46 10 -388 19 -425 12z
m140 -73 c0 -6 -4 -13 -10 -16 -18 -11 -10 -25 15 -25 20 0 25 5 25 25 0 24 2
25 63 23 l62 -2 -57 -3 c-47 -3 -58 -7 -57 -21 0 -22 97 -102 122 -102 13 0
17 -5 14 -14 -3 -8 -1 -16 5 -18 24 -8 -1 -40 -29 -38 -44 3 -50 1 -57 -16
-10 -26 14 -47 47 -40 26 5 28 4 25 -22 -3 -23 -9 -28 -43 -34 -48 -8 -88 15
-93 53 -2 14 -17 33 -38 47 -38 25 -41 48 -10 66 11 6 29 19 40 29 11 9 28 17
38 17 10 0 18 4 18 9 0 14 -25 30 -45 29 -11 -1 -35 2 -52 6 -22 5 -33 4 -33
-3 0 -6 -7 -11 -15 -11 -7 0 -18 -6 -22 -13 -4 -7 -19 -20 -33 -28 -16 -10
-26 -27 -28 -44 -1 -15 -7 -34 -13 -42 -7 -7 -9 -16 -6 -20 4 -3 2 -14 -4 -25
-10 -18 -8 -19 13 -13 l23 8 -20 -22 -20 -23 -21 28 -22 27 -21 -42 -22 -41
28 -36 c25 -33 28 -35 40 -18 17 23 16 31 -2 38 -20 7 -19 22 1 30 14 5 15 4
4 -9 -10 -12 -10 -15 3 -15 8 0 25 12 36 28 11 15 21 22 21 16 0 -6 -6 -17
-14 -23 -8 -7 -12 -21 -9 -31 6 -24 12 -25 28 -4 9 13 11 9 7 -22 -2 -30 -1
-35 7 -24 9 12 11 11 11 -7 0 -13 -4 -23 -8 -23 -10 0 -32 -45 -32 -64 0 -8 7
-31 16 -52 l16 -39 18 22 18 22 5 -21 c9 -33 1 -38 -64 -38 -66 0 -70 5 -45
64 13 31 12 37 -6 67 -26 44 -26 44 -40 31 -10 -8 -22 -3 -46 19 -31 28 -32
31 -18 56 13 25 12 32 -5 65 l-19 38 32 29 c23 20 37 26 45 20 8 -7 17 3 32
37 26 57 26 59 0 101 -12 19 -19 36 -17 38 3 3 26 8 51 11 l47 7 -21 -52 c-12
-28 -19 -54 -16 -57 7 -8 54 24 61 42 3 8 1 25 -4 38 -7 20 -6 26 8 29 32 9
92 7 92 -2z m236 -9 c6 -4 19 -34 29 -67 18 -66 48 -105 78 -105 11 0 31 -12
46 -27 26 -27 26 -31 26 -170 0 -78 3 -145 8 -149 4 -4 7 -21 7 -37 0 -27 -2
-29 -32 -23 -108 19 -246 36 -262 32 -10 -3 -28 -1 -40 4 -13 4 -29 4 -37 0
-8 -6 -16 -5 -20 2 -6 9 -11 9 -22 0 -7 -7 -17 -9 -20 -5 -4 3 -7 -4 -7 -17 0
-22 1 -23 20 -5 11 10 20 14 20 9 0 -5 40 -8 90 -6 49 2 90 0 90 -4 0 -14 -40
-70 -67 -94 -25 -22 -40 -26 -133 -30 -58 -3 -108 -4 -112 -3 -3 2 8 28 24 59
26 47 30 63 24 101 -3 25 -10 51 -16 58 -12 14 3 72 37 139 l25 49 16 -27 c13
-20 37 -34 92 -53 88 -30 95 -35 109 -74 10 -28 9 -29 -17 -23 -15 3 -37 7
-49 10 -12 2 -29 11 -37 20 -9 8 -16 11 -16 5 0 -31 98 -57 235 -63 l70 -3 8
98 c8 101 0 178 -20 184 -6 2 -14 -11 -18 -29 -4 -18 -17 -49 -29 -68 -13 -19
-26 -53 -30 -75 -8 -43 -32 -95 -44 -95 -15 0 -29 16 -39 46 -10 27 -7 36 28
88 25 37 39 69 39 90 0 18 6 41 14 51 12 16 10 23 -15 58 -16 22 -31 56 -35
76 -9 51 -21 69 -46 74 -20 4 -20 4 -3 5 11 1 25 -2 31 -6z m-50 -59 c-7 -17
-8 -17 -17 0 -12 21 -2 44 13 29 6 -6 8 -19 4 -29z m40 -179 c-4 -12 -10 -14
-17 -7 -5 5 -7 17 -3 27 4 12 10 14 17 7 5 -5 7 -17 3 -27z m-563 -24 c-8 -31
-23 -34 -23 -6 0 16 6 26 14 26 9 0 12 -7 9 -20z m75 -149 c61 -47 70 -87 56
-230 -11 -97 -28 -75 -21 27 7 110 2 133 -37 178 l-32 37 -33 -24 c-24 -18
-31 -30 -28 -46 6 -30 -8 -29 -28 1 -19 28 -8 66 26 90 25 17 39 12 97 -33z
m635 6 c3 -8 1 -20 -4 -28 -8 -12 -10 -12 -18 0 -10 15 -4 41 9 41 4 0 10 -6
13 -13z m-642 -40 c18 -25 38 -96 31 -115 -2 -6 -21 -15 -43 -18 l-39 -7 6
-41 c9 -63 11 -67 38 -60 l23 6 2 -185 1 -184 -58 -6 c-31 -3 -74 -9 -94 -13
l-38 -7 -2 89 c-2 83 -2 110 2 221 2 45 3 46 73 58 21 3 40 12 43 18 2 7 1 47
-4 90 -4 42 -6 77 -4 77 2 0 12 -10 22 -22 l18 -23 12 43 c9 37 9 48 -4 67
-27 41 -13 51 15 12z m-58 -12 c-3 -9 -8 -14 -10 -11 -3 3 -2 9 2 15 9 16 15
13 8 -4z m587 -173 c0 -20 -31 -62 -46 -62 -8 0 -19 10 -25 23 -9 19 -6 30 13
59 l23 36 17 -21 c10 -12 18 -28 18 -35z m89 23 c11 -32 10 -39 -7 -67 l-20
-31 -17 33 c-17 32 -17 35 0 67 10 18 21 33 25 33 3 0 12 -16 19 -35z m-469
-25 c0 -24 -16 -34 -24 -15 -7 19 3 47 15 39 5 -3 9 -14 9 -24z m-147 7 c9
-23 -8 -40 -22 -23 -13 15 -7 36 9 36 4 0 10 -6 13 -13z m634 -117 c37 -6 75
-14 83 -17 8 -4 21 -5 27 -4 7 1 22 -3 33 -9 18 -10 20 -20 19 -130 l-1 -120
-27 6 c-14 3 -42 12 -61 19 -74 29 -436 40 -618 19 l-62 -7 0 99 c0 143 0 142
72 143 33 0 62 2 65 4 10 10 406 7 470 -3z m-191 -291 c11 -10 25 -19 31 -19
17 0 44 -30 37 -41 -3 -6 -12 -8 -20 -5 -7 3 -16 1 -19 -4 -13 -21 -45 -8 -94
40 -28 27 -51 52 -51 54 0 13 98 -8 116 -25z m-244 -6 c9 -19 23 -30 43 -33
18 -3 30 -11 30 -20 0 -8 -6 -14 -12 -12 -7 1 -13 -3 -13 -9 0 -6 -7 -9 -15
-5 -8 3 -15 4 -15 2 0 -6 65 -46 74 -46 3 0 6 35 6 77 0 72 1 76 17 61 14 -14
14 -20 3 -33 -11 -13 -10 -21 6 -50 22 -42 27 -43 44 -10 7 13 17 22 22 19 11
-7 -33 -56 -67 -74 -22 -12 -30 -10 -78 22 -29 19 -62 38 -73 42 -20 6 -60 45
-79 76 -8 13 -7 13 8 1 10 -8 17 -9 17 -3 0 11 20 19 52 21 9 0 23 -11 30 -26z
m68 17 c0 -5 -2 -10 -4 -10 -3 0 -8 5 -11 10 -3 6 -1 10 4 10 6 0 11 -4 11
-10z m260 2 c0 -11 -69 -12 -76 -1 -3 5 13 9 35 9 23 0 41 -4 41 -8z"/>
<path d="M1350 1980 c0 -5 7 -10 15 -10 8 0 15 5 15 10 0 6 -7 10 -15 10 -8 0
-15 -4 -15 -10z"/>
<path d="M1250 1950 c0 -5 7 -10 15 -10 8 0 15 5 15 10 0 6 -7 10 -15 10 -8 0
-15 -4 -15 -10z"/>
<path d="M1263 1608 c-21 -28 -22 -36 -3 -41 16 -4 19 0 17 24 -2 33 -2 33
-14 17z"/>
<path d="M889 1342 c-24 -21 -32 -38 -36 -74 -7 -62 3 -127 27 -165 l19 -32
49 21 50 21 -1 53 c-2 48 -4 54 -24 54 -32 0 -57 -11 -43 -20 6 -4 14 -26 17
-50 7 -52 -12 -52 -40 1 -15 27 -17 48 -13 103 6 79 18 100 41 70 8 -10 12
-25 10 -32 -6 -15 25 -1 43 21 9 11 5 18 -18 35 -37 28 -43 28 -81 -6z"/>
<path d="M1252 1338 c-7 -7 -12 -22 -12 -35 0 -24 -15 -32 -22 -11 -3 7 -12 4
-27 -11 -22 -22 -23 -22 -28 -2 -4 16 -9 18 -28 11 -13 -5 -26 -6 -29 -2 -12
12 -45 12 -52 0 -7 -11 -6 -99 0 -106 2 -1 10 0 19 3 11 5 14 16 10 44 -5 36
-4 39 20 39 19 0 29 -8 38 -29 13 -33 1 -56 -32 -61 -21 -3 -28 -20 -10 -26
15 -5 87 64 101 97 17 42 40 30 40 -20 0 -31 -5 -41 -21 -47 -18 -7 -19 -10
-6 -20 33 -28 57 7 57 85 0 24 5 43 13 46 10 4 10 6 0 6 -7 1 -13 8 -13 16 0
8 5 14 11 13 6 -2 14 3 16 10 6 16 -29 16 -45 0z"/>
<path d="M1326 1334 c-17 -16 -19 -29 -16 -106 1 -38 -2 -48 -14 -48 -20 0
-21 -16 -1 -24 27 -10 45 22 45 79 0 33 5 55 13 58 10 4 10 6 0 6 -22 2 -14
31 8 31 11 0 18 -4 14 -9 -3 -5 0 -13 6 -17 8 -5 8 -9 -1 -14 -7 -4 -13 -28
-14 -53 -1 -43 1 -46 29 -50 45 -7 55 1 55 45 0 24 4 37 10 33 6 -4 7 -23 4
-46 -6 -35 -4 -39 14 -39 18 0 20 6 18 58 l-1 57 -30 -4 c-43 -5 -45 -7 -45
-59 0 -70 -19 -38 -21 36 -2 49 -6 65 -20 72 -25 14 -35 12 -53 -6z"/>
<path d="M1566 1315 c5 -21 3 -25 -15 -25 -28 0 -40 -27 -32 -74 6 -36 8 -38
46 -41 l40 -3 -3 69 c-2 45 1 75 8 84 11 13 7 15 -19 15 -28 0 -31 -2 -25 -25z
m-6 -87 c0 -28 -3 -39 -10 -32 -9 9 -3 74 6 74 2 0 4 -19 4 -42z"/>
<path d="M1622 1268 c-7 -7 -12 -29 -12 -50 0 -28 5 -40 22 -49 18 -10 24 -8
40 11 42 52 -5 133 -50 88z m38 -43 c0 -19 -4 -35 -10 -35 -5 0 -10 16 -10 35
0 19 5 35 10 35 6 0 10 -16 10 -35z"/>
<path d="M1714 1272 c-6 -4 -13 -31 -16 -59 l-5 -53 30 0 c24 0 28 3 19 12
-14 14 -16 88 -3 88 5 0 11 -6 14 -12 2 -7 8 -10 12 -6 23 22 -23 49 -51 30z"/>
</g>
</svg>
