<?xml version="1.0" standalone="no"?>
<!DOCTYPE svg PUBLIC "-//W3C//DTD SVG 20010904//EN"
 "http://www.w3.org/TR/2001/REC-SVG-20010904/DTD/svg10.dtd">
<svg version="1.0" xmlns="http://www.w3.org/2000/svg"
 width="263.000000pt" height="300.000000pt" viewBox="0 0 263.000000 300.000000"
 preserveAspectRatio="xMidYMid meet">

<g transform="translate(0.000000,300.000000) scale(0.100000,-0.100000)"
fill="#000000" stroke="none">
<path d="M1291 2110 c-15 -13 -38 -20 -67 -20 -29 0 -44 -4 -44 -13 0 -7 -30
-20 -72 -31 -40 -10 -97 -27 -126 -38 -43 -16 -52 -23 -46 -36 21 -45 -14
-122 -54 -122 -17 0 -13 -48 15 -207 12 -71 20 -93 32 -93 9 0 3 -8 -15 -19
-18 -11 -35 -24 -38 -30 -4 -6 -20 -11 -35 -11 -27 0 -27 -1 -25 -60 2 -34 -1
-60 -7 -60 -5 0 -17 -16 -26 -35 -13 -28 -14 -37 -3 -50 7 -8 19 -15 27 -15
11 0 14 -12 12 -52 l-3 -53 40 -3 c37 -3 40 -6 52 -45 28 -88 89 -135 232
-178 57 -17 85 -32 120 -65 l47 -44 29 31 c50 53 81 70 178 93 115 29 147 47
178 100 21 38 23 51 21 174 -1 78 2 132 7 132 6 0 10 -24 10 -53 0 -55 12 -77
42 -77 36 0 50 42 42 129 -5 63 -3 89 10 121 15 37 15 43 0 71 -8 17 -29 38
-45 47 -60 33 -58 28 -44 131 14 94 14 95 -10 123 -29 34 -39 76 -26 110 14
37 1 45 -126 76 -59 14 -112 32 -116 39 -4 7 -22 13 -40 13 -18 0 -45 9 -62
20 -36 24 -34 24 -64 0z m-13 -189 c27 -39 33 -56 30 -91 l-3 -42 -55 78 c-78
111 -76 104 -38 104 28 0 38 -7 66 -49z m213 39 c90 -17 101 -25 137 -100 33
-71 37 -94 26 -174 -7 -45 -8 -46 -43 -46 -20 -1 -56 -5 -81 -10 -42 -8 -47
-6 -81 25 -21 18 -35 36 -32 39 3 3 -2 12 -10 20 -10 11 -17 12 -19 5 -3 -8
-14 -7 -35 5 -18 9 -39 16 -48 16 -8 0 -15 7 -15 15 0 8 -7 15 -15 15 -8 0
-12 6 -9 14 7 19 -13 57 -28 53 -7 -1 -14 7 -16 18 -7 33 -22 42 -29 17 -6
-23 -76 -61 -98 -53 -5 2 -26 5 -45 6 -32 2 -35 5 -32 31 6 46 18 48 48 10 27
-33 52 -45 67 -30 3 4 -9 27 -28 51 -37 48 -37 57 -5 66 15 4 28 -5 51 -34 23
-29 35 -37 43 -29 16 12 41 -13 87 -90 29 -46 35 -51 37 -32 4 24 32 31 32 7
0 -8 5 -15 10 -15 6 0 10 7 10 15 0 8 6 15 13 16 10 0 10 2 0 6 -7 2 -13 11
-13 19 0 8 -4 14 -10 14 -5 0 -10 -7 -10 -15 0 -8 -4 -15 -10 -15 -5 0 -10 11
-10 24 0 12 -3 51 -6 85 l-7 61 60 0 c33 0 85 -5 114 -10z m-359 -175 c21 -3
50 -17 65 -29 27 -24 28 -24 9 -45 -19 -21 -19 -21 1 -21 11 0 28 -9 38 -20
20 -22 64 -27 83 -8 9 9 12 9 12 0 0 -20 -33 -30 -90 -25 -96 8 -98 9 -113 60
-16 56 -30 63 -53 28 -16 -24 -16 -27 1 -45 9 -10 15 -24 13 -31 -6 -19 -45
28 -52 63 -3 17 -6 48 -6 70 l0 39 28 -15 c15 -8 44 -18 64 -21z m76 11 c15
-8 45 -33 67 -55 29 -31 36 -44 27 -53 -15 -15 -35 2 -52 42 -7 17 -15 30 -19
30 -9 0 -67 49 -58 50 4 0 20 -6 35 -14z m-182 -64 c3 -21 15 -52 26 -71 10
-18 16 -36 13 -39 -3 -3 -6 -3 -8 -1 -1 2 -17 21 -35 42 -24 28 -32 47 -32 77
0 31 3 38 15 34 8 -3 17 -22 21 -42z m709 -121 c22 -10 51 -30 65 -45 23 -26
24 -28 10 -74 -8 -26 -13 -73 -12 -105 l3 -58 -41 27 c-38 25 -44 26 -138 22
-108 -6 -264 -43 -456 -108 -66 -22 -121 -38 -123 -36 -2 2 0 57 4 122 l8 119
42 15 c41 14 42 15 37 50 -8 49 19 72 88 76 l53 4 -58 -13 c-72 -17 -94 -45
-67 -87 9 -13 11 -13 20 0 5 8 10 11 10 7 0 -5 6 -5 13 0 6 4 17 8 22 9 6 1
48 14 95 29 199 64 351 80 425 46z m-709 -12 c34 -31 21 -49 -35 -48 -31 2
-37 3 -17 6 25 4 28 8 24 34 -5 35 -1 36 28 8z m-61 -109 c-4 -11 -2 -20 4
-20 6 0 11 7 11 16 0 13 6 11 24 -9 23 -25 25 -34 25 -148 1 -76 -3 -127 -10
-136 -13 -15 -111 -17 -144 -3 -18 7 -17 9 13 20 32 12 33 14 26 55 -8 53 0
69 27 55 15 -9 18 -18 13 -48 -3 -20 -7 -45 -10 -54 -7 -22 -3 -22 40 -2 31
15 33 19 23 41 -8 18 -8 29 0 42 7 11 8 22 3 27 -5 5 -10 37 -12 71 l-3 62
-25 -13 c-14 -7 -23 -19 -21 -27 18 -63 6 -94 -25 -68 -12 10 -15 24 -10 61
l7 47 -33 -13 c-29 -12 -33 -18 -30 -45 3 -23 -1 -31 -13 -31 -13 0 -16 9 -13
53 3 47 5 52 28 55 14 2 31 9 39 15 11 9 13 9 8 0 -4 -6 -3 -14 3 -18 5 -3 10
1 10 9 0 9 5 16 11 16 5 0 8 -4 4 -9 -3 -5 -1 -12 4 -15 5 -3 11 3 14 14 3 11
8 20 12 20 3 0 3 -9 0 -20z m633 -205 c45 19 62 18 62 -5 0 -12 -6 -34 -14
-48 -8 -15 -18 -48 -21 -73 -8 -61 -27 -88 -48 -70 -25 20 -62 10 -60 -16 3
-30 -40 -43 -66 -19 -10 9 -23 16 -29 16 -7 0 -12 3 -12 8 0 4 18 8 40 9 52 3
91 24 129 69 39 48 77 121 68 130 -4 4 -23 0 -42 -9 l-35 -17 2 53 c1 51 2 51
5 9 4 -36 7 -42 21 -37z m170 53 c18 -18 14 -38 -8 -38 -15 0 -19 6 -18 25 3
28 8 31 26 13z m-948 -13 c0 -8 -4 -15 -10 -15 -5 0 -7 7 -4 15 4 8 8 15 10
15 2 0 4 -7 4 -15z m45 -18 c8 -40 -6 -99 -24 -105 -11 -4 -12 4 -6 39 4 24 7
56 8 72 0 38 15 34 22 -6z m931 -43 c-7 -18 -42 -18 -49 1 -8 18 13 32 23 15
6 -9 10 -6 16 11 7 20 8 21 12 6 2 -10 1 -25 -2 -33z m-412 -6 c20 -23 36 -45
36 -50 0 -12 -52 -9 -75 5 -97 58 -99 60 -57 75 46 17 59 13 96 -30z m-189
-39 c7 -31 -8 -54 -27 -43 -13 8 -38 -22 -38 -46 0 -13 10 -25 28 -32 36 -16
38 -18 25 -26 -8 -5 -8 -10 1 -18 9 -8 15 -7 24 3 8 8 9 13 2 13 -5 0 -10 5
-10 10 0 6 11 10 24 10 13 0 35 9 50 21 l26 20 0 -80 c0 -45 -2 -81 -4 -81 -3
0 -20 9 -38 19 -18 10 -58 24 -88 31 -98 22 -152 59 -165 112 -5 21 -3 27 13
32 11 4 22 15 25 26 3 13 25 25 68 38 35 11 67 21 71 21 3 1 9 -13 13 -30z
m395 0 c-7 -11 -14 -18 -17 -15 -8 8 5 36 17 36 7 0 7 -6 0 -21z m-212 -70
c-2 -6 -8 -10 -13 -10 -5 0 -11 4 -13 10 -2 6 4 11 13 11 9 0 15 -5 13 -11z
m32 -130 c0 -21 -34 -15 -65 12 -26 23 -35 39 -35 62 l0 31 50 -49 c28 -27 50
-52 50 -56z m-19 63 c-7 -2 -18 1 -23 6 -8 8 -4 9 13 5 13 -4 18 -8 10 -11z"/>
<path d="M1470 1917 c0 -9 -4 -17 -10 -17 -5 0 -10 -5 -10 -11 0 -5 5 -7 10
-4 6 3 10 -1 10 -9 0 -20 7 -20 26 -1 13 13 13 17 -5 37 -18 18 -21 19 -21 5z"/>
<path d="M1373 1905 c-15 -17 -17 -29 -3 -20 6 3 10 -1 10 -9 0 -9 5 -16 10
-16 6 0 10 7 10 16 0 8 5 12 10 9 15 -9 12 4 -4 21 -17 17 -18 17 -33 -1z"/>
<path d="M1543 1905 c-15 -17 -17 -29 -3 -20 6 3 10 -1 10 -9 0 -9 5 -16 10
-16 6 0 10 7 10 16 0 8 5 12 10 9 15 -9 12 4 -4 21 -17 17 -18 17 -33 -1z"/>
<path d="M1430 1816 c0 -8 -6 -17 -12 -19 -10 -4 -10 -6 0 -6 6 -1 12 -8 12
-16 0 -8 5 -15 10 -15 6 0 10 6 10 14 0 8 6 17 13 19 10 4 10 6 0 6 -7 1 -13
8 -13 16 0 8 -4 15 -10 15 -5 0 -10 -6 -10 -14z"/>
<path d="M1510 1815 c0 -8 -4 -15 -10 -15 -5 0 -10 -5 -10 -11 0 -5 5 -7 10
-4 6 3 10 -1 10 -9 0 -9 5 -16 10 -16 6 0 10 6 10 14 0 8 6 17 13 19 10 4 10
6 0 6 -7 1 -13 8 -13 16 0 8 -4 15 -10 15 -5 0 -10 -7 -10 -15z"/>
<path d="M1601 1818 c0 -9 -7 -18 -14 -20 -10 -2 -9 -7 3 -18 13 -13 17 -13
33 3 13 13 14 17 3 17 -8 0 -17 8 -19 18 -4 15 -5 15 -6 0z"/>
<path d="M1462 1714 c-11 -12 -10 -17 2 -30 15 -14 17 -14 32 0 14 14 14 18 0
31 -18 18 -18 18 -34 -1z"/>
<path d="M1560 1717 c0 -9 -5 -17 -11 -17 -6 0 -4 -7 5 -15 16 -17 30 -20 21
-6 -3 5 1 11 8 13 11 2 10 7 -5 22 -16 17 -18 18 -18 3z"/>
<path d="M1164 1739 c-7 -12 15 -31 28 -23 4 3 8 12 8 20 0 17 -26 19 -36 3z"/>
<path d="M1621 1596 c-8 -9 -9 -37 -5 -83 5 -58 4 -72 -11 -87 -13 -13 -15
-20 -6 -29 21 -21 43 17 50 88 4 36 4 68 -1 71 -15 9 -8 22 15 28 18 5 20 8 7
16 -21 13 -36 12 -49 -4z"/>
<path d="M1685 1581 c-3 -10 -5 -45 -4 -78 1 -32 -1 -69 -6 -82 -6 -19 -4 -22
12 -19 14 3 19 14 21 61 3 57 14 71 40 45 6 -6 15 -9 18 -5 9 9 -15 37 -32 37
-8 0 -14 7 -14 15 0 9 6 12 15 9 18 -7 20 7 3 24 -18 18 -46 14 -53 -7z"/>
<path d="M1568 1556 c-12 -8 -18 -27 -18 -50 0 -20 -4 -36 -10 -36 -5 0 -10
18 -10 41 0 56 -24 47 -28 -11 -4 -53 3 -61 47 -52 35 8 35 8 35 65 1 31 1 57
1 57 0 0 -8 -7 -17 -14z"/>
<path d="M1420 1535 c-12 -15 -20 -175 -8 -175 28 0 38 14 32 44 -5 28 -2 34
20 44 18 8 26 19 26 37 0 56 -41 85 -70 50z m40 -46 c0 -16 -4 -29 -10 -29 -5
0 -10 16 -10 36 0 21 4 33 10 29 6 -3 10 -19 10 -36z"/>
<path d="M1292 1528 c-5 -7 -12 -47 -14 -90 -3 -70 -2 -75 14 -67 15 8 18 23
18 89 0 44 -2 80 -4 80 -2 0 -8 -6 -14 -12z"/>
<path d="M1215 1518 c-11 -6 -27 -14 -35 -18 -8 -4 -19 -21 -25 -38 -5 -18
-17 -35 -27 -38 -13 -4 -18 -15 -18 -40 0 -42 -18 -45 -22 -4 -2 22 -6 27 -17
21 -9 -6 -11 -20 -6 -50 7 -44 10 -46 49 -31 22 8 26 16 26 50 0 22 4 40 9 40
4 0 7 -10 5 -22 -13 -98 -13 -108 7 -97 16 8 19 21 19 72 0 37 5 69 13 76 10
11 10 14 0 18 -19 7 -16 23 5 23 14 0 18 -11 20 -58 2 -32 -2 -71 -8 -86 -9
-24 -8 -27 7 -24 14 2 19 17 24 68 3 36 9 73 13 83 6 11 4 17 -5 17 -10 1 -8
5 5 15 34 26 2 45 -39 23z"/>
<path d="M1353 1502 c-12 -8 -33 -55 -33 -76 0 -7 6 -20 13 -30 18 -25 57 -13
57 17 -1 22 -1 22 -15 3 -8 -11 -16 -16 -16 -10 -1 5 -3 21 -5 36 -1 15 2 31
8 34 7 5 9 1 5 -9 -8 -21 6 -22 23 -2 10 12 10 18 0 30 -14 17 -20 18 -37 7z"/>
<path d="M1052 1164 c-11 -12 -10 -17 2 -30 15 -14 17 -14 32 0 14 14 14 18 0
31 -18 18 -18 18 -34 -1z"/>
<path d="M1102 1077 c-14 -17 9 -38 24 -23 8 8 7 15 -2 23 -9 9 -15 9 -22 0z"/>
<path d="M1254 1076 c-8 -8 -8 -15 0 -22 8 -8 15 -7 23 2 9 9 9 15 0 22 -8 7
-16 6 -23 -2z"/>
</g>
</svg>
