<?xml version="1.0" standalone="no"?>
<!DOCTYPE svg PUBLIC "-//W3C//DTD SVG 20010904//EN"
 "http://www.w3.org/TR/2001/REC-SVG-20010904/DTD/svg10.dtd">
<svg version="1.0" xmlns="http://www.w3.org/2000/svg"
 width="263.000000pt" height="300.000000pt" viewBox="0 0 263.000000 300.000000"
 preserveAspectRatio="xMidYMid meet">

<g transform="translate(0.000000,300.000000) scale(0.100000,-0.100000)"
fill="#000000" stroke="none">
<path d="M1365 2205 c20 -88 -16 -277 -60 -309 -21 -15 -26 -82 -6 -78 8 2 11
-3 8 -10 -22 -54 -23 -51 19 -44 21 3 58 6 82 6 31 -1 52 6 80 27 33 25 35 25
17 4 l-20 -24 60 7 c33 4 103 9 155 13 88 5 96 4 114 -16 19 -21 19 -22 -2
-84 -12 -34 -24 -83 -28 -109 -6 -45 -7 -46 -31 -37 -36 13 -122 11 -263 -7
-132 -17 -330 -22 -367 -10 -28 9 -35 44 -31 156 3 72 6 85 20 84 9 -1 51 -5
93 -9 l78 -7 -8 29 c-14 48 -8 76 39 173 42 85 46 100 46 166 0 40 -3 75 -7
77 -5 3 -6 -15 -4 -40 2 -32 0 -43 -8 -39 -7 5 -11 -7 -11 -36 0 -31 -3 -39
-10 -28 -5 8 -10 25 -10 38 0 24 -27 72 -40 72 -4 0 -3 -23 2 -51 14 -75 5
-79 -28 -14 -27 56 -56 86 -69 74 -3 -4 6 -29 20 -57 35 -69 40 -124 20 -201
-10 -40 -14 -78 -10 -102 6 -37 5 -39 -18 -39 -42 0 -87 12 -87 23 0 6 -7 18
-16 28 -24 27 -8 39 51 39 51 0 54 1 64 31 6 18 11 42 11 55 0 21 -3 23 -32
16 -44 -9 -166 -9 -201 1 -25 7 -28 5 -23 -10 3 -10 8 -39 12 -65 l6 -48 -51
0 c-53 0 -91 -23 -91 -55 0 -8 -12 -26 -26 -40 -33 -33 -31 -95 3 -110 19 -8
23 -20 29 -98 l7 -89 33 5 34 6 0 -77 c0 -95 20 -86 27 12 3 37 9 68 12 71 4
2 13 -64 20 -147 6 -83 18 -167 26 -186 60 -142 290 -348 369 -328 44 11 146
88 204 153 58 66 112 140 112 154 0 4 -15 5 -34 2 -19 -3 -42 -1 -52 5 -15 9
-12 10 19 8 20 -2 37 1 37 6 0 4 12 5 26 2 19 -5 25 -4 20 5 -5 7 1 11 14 11
32 0 15 17 -24 24 -59 11 -238 108 -224 121 3 3 16 -4 30 -15 70 -55 241 -121
261 -101 5 5 -8 12 -29 16 -61 11 -139 43 -184 76 -37 27 -40 32 -28 47 8 9
20 31 28 47 8 17 19 33 25 38 6 4 5 10 -3 16 -10 6 -8 10 10 15 21 7 22 8 4
15 -18 7 -18 8 -2 14 10 4 19 7 21 7 3 0 -2 -33 -5 -37 -2 -2 -3 -6 -4 -10 0
-5 -11 -23 -24 -40 -13 -18 -20 -33 -16 -33 4 0 -1 -9 -12 -21 -19 -21 -18
-21 5 -40 13 -10 29 -19 36 -19 23 0 44 35 48 80 l4 45 1 -50 c2 -41 -2 -53
-18 -63 -23 -14 -27 -37 -5 -28 8 3 15 1 15 -5 0 -9 30 -24 74 -35 29 -7 35
13 37 125 1 89 14 107 25 36 8 -56 20 -65 30 -23 3 18 14 38 24 45 12 8 19 32
24 75 3 36 17 83 31 111 l25 49 -21 29 c-11 16 -24 29 -29 29 -5 0 -4 14 2 32
10 28 9 33 -16 55 -16 13 -40 23 -58 23 -28 0 -30 2 -25 29 3 15 9 52 13 81
l7 53 -29 -8 c-16 -4 -64 -9 -106 -9 -65 -1 -80 -5 -92 -21 -20 -26 -20 -36
-1 -29 9 4 15 0 15 -10 0 -9 8 -17 18 -18 9 -1 24 -2 32 -4 8 -1 23 -2 33 -3
12 -1 17 -9 17 -30 0 -33 -14 -41 -71 -41 -32 0 -39 3 -39 20 0 14 -5 18 -17
13 -16 -6 -16 -5 0 17 23 33 21 40 -9 40 l-25 0 25 33 c38 49 32 56 -11 16
-59 -56 -160 -136 -138 -110 11 13 55 52 98 88 42 36 77 69 77 75 0 6 -6 6
-15 -2 -12 -10 -13 -6 -8 24 3 19 2 47 -1 61 l-7 26 -18 -22 c-18 -23 -18 -23
-13 29 6 70 -8 104 -19 41 -4 -25 -21 -78 -39 -118 -17 -40 -30 -82 -28 -94 3
-18 15 -6 58 60 30 45 55 81 57 79 5 -5 -73 -136 -103 -173 l-22 -28 -1 30 c0
17 -1 38 -1 48 -1 10 15 56 34 101 23 52 36 98 35 122 -1 37 -2 37 -17 -21
l-16 -60 -17 59 c-19 63 -47 106 -34 51z m120 -343 c-61 -51 -107 -83 -103
-71 4 13 93 79 106 79 3 0 2 -4 -3 -8z m-428 -38 c21 -6 21 -10 21 -170 l-1
-164 -68 0 -69 0 0 69 c0 39 4 72 9 76 16 9 33 -35 29 -75 -3 -38 -3 -38 37
-43 22 -3 41 -4 44 -2 10 11 -13 80 -34 101 l-24 24 22 11 c30 16 37 28 37 67
0 24 -9 42 -31 64 -28 29 -34 30 -82 25 -29 -4 -62 -9 -74 -13 -17 -5 -23 -2
-23 10 0 31 115 42 207 20z m-69 -86 c13 -33 13 -40 -2 -63 -30 -46 -46 -32
-46 41 0 56 2 65 17 62 10 -2 24 -20 31 -40z m-104 -15 c3 -21 9 -85 13 -141
l6 -104 -24 4 c-23 3 -24 7 -27 80 -2 58 1 84 13 102 17 25 13 66 -6 66 -5 0
-9 7 -9 15 0 32 28 14 34 -22z m-65 -1 c-11 -17 -10 -24 2 -38 12 -15 12 -17
-1 -12 -19 6 -25 45 -9 64 17 21 23 10 8 -14z m1040 -60 c7 -13 4 -31 -10 -63
-11 -24 -23 -65 -26 -91 -3 -28 -11 -48 -18 -48 -7 0 -27 -3 -44 -6 -20 -4
-31 -3 -31 5 0 6 11 11 24 11 34 0 38 10 47 106 4 46 10 88 14 94 10 16 33 12
44 -8z m-89 -141 c14 -27 13 -31 -9 -31 -24 0 -33 13 -25 34 8 21 21 20 34 -3z
m-321 -13 c-2 -43 -14 -82 -24 -81 -5 1 -9 15 -7 32 2 17 1 31 -1 31 -21 0
-38 -17 -47 -46 -15 -44 -30 -44 -23 1 3 19 3 35 -1 35 -11 0 -36 -72 -36
-106 0 -41 -17 -45 -26 -6 -11 43 -24 55 -58 47 -17 -3 -44 -8 -60 -10 -28 -4
-29 -4 -13 13 13 12 34 17 78 17 l61 -1 -5 37 -5 37 45 7 c32 5 48 3 53 -6 6
-9 13 -8 31 5 31 22 39 20 38 -6z m-218 2 c20 0 28 -6 31 -25 3 -14 1 -25 -3
-25 -5 0 -9 9 -9 20 0 11 -5 20 -11 20 -5 0 -9 -10 -7 -22 3 -19 -3 -23 -37
-29 -69 -11 -120 -96 -79 -130 15 -12 19 -11 32 9 20 30 53 28 90 -7 45 -44
55 -67 48 -116 -8 -53 -36 -81 -65 -66 -26 15 -27 14 -51 -11 l-21 -23 10 28
c16 41 14 130 -1 125 -21 -7 -23 -144 -3 -175 9 -14 19 -22 22 -19 3 3 0 12
-7 21 -7 9 -8 15 -2 15 6 0 12 -6 15 -12 3 -10 8 -10 18 1 9 9 9 11 2 7 -14
-8 -18 9 -5 18 4 2 30 0 57 -5 60 -11 69 -3 79 71 4 27 11 52 16 55 15 9 11
-35 -7 -80 -19 -50 -25 -135 -7 -110 10 13 11 4 7 -44 -5 -52 -3 -61 11 -61
13 0 16 11 16 61 0 37 -5 66 -13 73 -7 6 -11 10 -9 9 8 -4 72 76 72 90 0 22
16 29 48 22 28 -6 28 -7 24 -64 -6 -77 0 -93 21 -61 12 19 14 35 8 67 -8 39
-7 41 10 33 24 -13 32 -13 23 2 -4 6 -3 8 4 5 16 -11 8 -51 -18 -88 -39 -57
-113 -129 -152 -150 l-38 -19 -51 26 c-110 55 -186 153 -213 275 -19 84 -31
249 -19 249 6 0 11 -30 12 -67 2 -99 12 -174 23 -171 21 7 107 84 108 96 0 20
-39 14 -52 -8 -16 -24 -26 -25 -50 -3 -22 20 -24 66 -3 83 19 16 21 106 3 114
-7 4 12 4 42 1 30 -3 67 -5 81 -5z m347 -22 c-18 -11 -50 -10 -43 2 3 6 -2 10
-12 11 -16 0 -16 1 2 8 25 10 72 -8 53 -21z m-468 -8 c0 -11 -4 -20 -9 -20 -5
0 -7 9 -4 20 3 11 7 20 9 20 2 0 4 -9 4 -20z m530 -14 c0 -2 -8 -10 -17 -17
-16 -13 -17 -12 -4 4 13 16 21 21 21 13z m170 -31 c0 -10 -10 -15 -26 -15 -22
0 -25 2 -14 15 7 8 19 15 26 15 8 0 14 -7 14 -15z m-33 -67 c-3 -7 -5 -2 -5
12 0 14 2 19 5 13 2 -7 2 -19 0 -25z m-634 -15 c-12 -17 -18 -21 -24 -12 -11
18 8 49 26 43 12 -5 12 -9 -2 -31z m167 -168 c-15 -39 -23 -25 -8 16 6 18 13
29 15 23 2 -6 -1 -24 -7 -39z m264 13 c-4 -6 1 -8 12 -4 11 3 26 1 34 -5 12
-8 9 -9 -9 -4 -17 5 -21 4 -16 -5 4 -7 -7 -4 -26 5 -43 22 -51 29 -20 20 18
-5 22 -4 16 5 -5 9 -4 11 4 6 6 -4 8 -12 5 -18z"/>
<path d="M1140 1474 c0 -39 15 -39 22 0 3 15 0 27 -8 30 -10 4 -14 -4 -14 -30z"/>
<path d="M1190 1480 c0 -11 5 -20 10 -20 6 0 10 9 10 20 0 11 -4 20 -10 20 -5
0 -10 -9 -10 -20z"/>
<path d="M1193 1284 c-11 -29 -8 -117 4 -121 8 -3 12 18 15 66 3 67 -5 91 -19
55z"/>
<path d="M1236 1219 c-8 -77 -2 -95 20 -65 22 30 17 136 -6 136 -4 0 -11 -32
-14 -71z"/>
<path d="M1101 1208 c0 -7 4 -22 9 -33 7 -17 9 -15 9 13 1 17 -3 32 -9 32 -5
0 -10 -6 -9 -12z"/>
<path d="M1438 1183 c-2 -5 -2 -47 0 -95 3 -70 6 -86 18 -81 10 4 14 25 14 84
0 70 -2 78 -17 72 -16 -6 -16 -5 -4 10 8 10 9 17 3 17 -6 0 -12 -3 -14 -7z"/>
<path d="M1541 1134 c0 -11 3 -14 6 -6 3 7 2 16 -1 19 -3 4 -6 -2 -5 -13z"/>
<path d="M1397 1123 c-10 -9 -9 -163 1 -163 21 0 27 25 24 94 -3 71 -9 86 -25
69z"/>
<path d="M1188 1063 c-12 -15 2 -37 34 -54 20 -11 67 16 68 39 0 15 -37 16
-42 1 -2 -7 -11 -7 -28 1 -23 9 -23 10 -2 6 12 -2 22 0 22 6 0 5 12 8 28 6 26
-3 27 -6 27 -57 0 -36 4 -56 13 -59 18 -6 13 95 -5 114 -17 17 -100 15 -115
-3z"/>
<path d="M1256 1002 c-3 -6 -1 -14 5 -17 14 -9 20 -2 10 14 -6 8 -11 9 -15 3z"/>
<path d="M1547 1499 c7 -7 15 -10 18 -7 3 3 -2 9 -12 12 -14 6 -15 5 -6 -5z"/>
<path d="M1545 1860 c-4 -6 -1 -10 6 -10 6 0 9 -8 6 -20 -3 -11 -2 -20 3 -20
8 0 20 24 20 40 0 12 -29 20 -35 10z"/>
<path d="M1090 1847 c0 -20 30 -44 68 -52 31 -6 32 -5 32 24 0 37 -4 38 -38
10 l-27 -21 -5 23 c-6 25 -30 38 -30 16z"/>
<path d="M1609 1853 c11 -4 8 -10 -10 -24 -19 -14 -20 -19 -7 -19 26 0 48 11
48 25 0 12 -23 26 -38 24 -4 0 -1 -3 7 -6z"/>
<path d="M1545 1749 c-9 -37 -1 -172 10 -176 6 -2 9 33 8 93 -1 98 -7 125 -18
83z"/>
<path d="M1737 1752 c-14 -15 -14 -19 4 -41 20 -25 26 -76 9 -86 -10 -6 -15
13 -12 48 1 9 -3 17 -8 17 -6 0 -10 -11 -10 -24 0 -32 -10 -56 -22 -56 -6 0
-8 18 -6 40 2 27 0 40 -9 40 -7 0 -13 -18 -16 -42 l-4 -43 -1 42 c-2 36 -6 44
-27 49 -27 7 -59 -12 -49 -28 4 -6 10 -6 17 1 20 20 27 12 27 -30 0 -25 -4
-38 -10 -34 -6 4 -8 16 -4 27 5 17 3 18 -15 9 -22 -12 -25 -20 -15 -45 7 -19
55 -21 72 -4 9 9 15 9 24 0 9 -9 16 -8 29 4 11 10 19 12 24 5 20 -33 45 19 45
93 0 62 -18 86 -43 58z"/>
<path d="M1466 1678 c-20 -29 -20 -72 0 -89 18 -14 45 -3 51 22 3 8 0 7 -7 -3
-19 -30 -30 -20 -30 27 0 42 13 60 23 33 2 -7 8 -10 12 -6 11 11 -2 38 -19 38
-8 0 -22 -10 -30 -22z"/>
<path d="M1120 1675 c-6 -8 -8 -19 -4 -26 5 -8 9 -7 16 5 16 29 28 17 28 -30
0 -27 -4 -43 -10 -39 -5 3 -10 15 -10 26 0 23 -18 25 -27 3 -8 -23 10 -49 33
-48 41 2 50 13 46 57 -5 58 -44 86 -72 52z"/>
<path d="M1210 1636 c0 -63 13 -77 42 -48 l21 20 23 -26 c22 -26 24 -26 40
-10 10 10 14 21 10 25 -4 4 -11 1 -16 -7 -8 -12 -10 -12 -16 3 -9 25 2 47 26
47 21 0 24 8 14 34 -8 20 -38 21 -55 0 -11 -14 -13 -14 -21 0 -14 24 -26 19
-20 -9 6 -32 -6 -78 -18 -70 -6 3 -10 26 -10 51 0 24 -4 44 -10 44 -5 0 -10
-24 -10 -54z m124 29 c3 -9 0 -15 -9 -15 -9 0 -12 6 -9 15 4 8 7 15 9 15 2 0
5 -7 9 -15z"/>
<path d="M1379 1681 c-1 -3 -1 -28 -1 -56 0 -51 16 -66 19 -17 0 15 2 35 2 45
1 9 6 17 11 17 6 0 10 -25 10 -56 0 -34 4 -53 10 -49 6 3 10 33 10 65 l0 59
-30 -1 c-16 -1 -30 -4 -31 -7z"/>
</g>
</svg>
