<?xml version="1.0" standalone="no"?>
<!DOCTYPE svg PUBLIC "-//W3C//DTD SVG 20010904//EN"
 "http://www.w3.org/TR/2001/REC-SVG-20010904/DTD/svg10.dtd">
<svg version="1.0" xmlns="http://www.w3.org/2000/svg"
 width="263.000000pt" height="300.000000pt" viewBox="0 0 263.000000 300.000000"
 preserveAspectRatio="xMidYMid meet">

<g transform="translate(0.000000,300.000000) scale(0.100000,-0.100000)"
fill="#000000" stroke="none">
<path d="M1234 2028 c-3 -5 -13 -6 -22 -4 -10 3 -24 1 -32 -4 -12 -7 -12 -12
4 -29 17 -19 16 -19 -39 -31 -80 -17 -174 -18 -217 -3 -45 15 -46 9 -13 -56
24 -47 24 -49 5 -54 -11 -3 -20 -13 -20 -24 -1 -11 -19 -29 -47 -46 l-46 -28
38 -39 c36 -37 37 -40 30 -88 -5 -38 -3 -53 9 -65 9 -8 16 -32 16 -51 0 -39 2
-41 30 -26 17 9 18 2 25 -115 4 -68 4 -137 0 -152 -3 -15 -3 -69 0 -119 l7
-92 47 -17 c25 -10 80 -36 121 -58 41 -22 106 -57 145 -78 l69 -37 46 23 c25
13 90 50 145 84 55 33 105 61 110 61 6 0 27 5 47 10 l37 11 -6 264 -6 264 29
-2 c25 -2 29 2 35 33 21 108 28 131 49 160 l23 33 -24 18 c-13 10 -28 19 -34
19 -5 0 -20 8 -32 18 -23 18 -23 26 2 110 7 22 6 22 -84 22 -58 0 -111 6 -141
16 -43 14 -48 18 -40 35 9 16 6 19 -17 24 -16 4 -35 10 -44 15 -21 11 -198 10
-205 -2z m-134 -149 c0 -19 3 -21 33 -13 17 5 113 9 212 9 227 0 316 -18 425
-84 8 -5 23 -12 33 -15 28 -9 31 -33 7 -66 -12 -17 -24 -43 -25 -58 -8 -66
-18 -113 -26 -118 -4 -2 -43 13 -86 34 -69 35 -179 69 -190 59 -10 -11 42 -40
74 -41 41 -1 50 -13 30 -40 -11 -15 -16 -16 -22 -6 -6 9 -4 11 5 5 8 -5 11 -4
7 2 -7 12 -88 6 -101 -7 -7 -7 -3 -17 11 -32 l22 -21 -6 22 c-3 14 -1 26 7 31
16 10 52 1 44 -12 -3 -5 2 -19 12 -31 18 -21 18 -21 -7 1 -14 12 -29 22 -35
22 -5 0 -2 -5 6 -10 13 -9 13 -11 0 -20 -12 -8 -10 -10 10 -11 17 -1 20 -3 7
-6 -9 -2 -14 -9 -11 -15 3 -5 -8 -3 -24 6 -35 18 -46 20 -38 7 3 -5 0 -14 -8
-20 -11 -9 -15 -8 -20 5 -3 9 -3 20 0 26 3 5 0 17 -8 26 -8 9 -22 29 -31 44
-14 23 -15 26 -2 22 8 -4 15 -12 15 -19 0 -7 9 -23 20 -36 l20 -24 -7 34 c-10
55 -42 78 -118 85 -25 2 -85 -56 -85 -83 0 -34 47 -77 132 -121 112 -59 157
-106 168 -178 9 -54 6 -77 -9 -68 -4 3 -15 -13 -25 -34 -12 -27 -31 -48 -59
-64 -45 -25 -137 -43 -137 -26 0 6 -12 10 -27 10 -43 0 -90 50 -99 105 -3 25
-3 58 0 73 17 67 17 82 2 113 -12 24 -13 36 -5 43 6 7 9 7 7 1 -1 -5 6 -22 16
-37 14 -22 16 -36 10 -70 -19 -107 -2 -163 56 -193 66 -33 129 -24 190 28 27
23 34 37 38 75 4 42 1 51 -25 79 -16 17 -27 35 -26 40 2 5 -20 22 -49 38 -29
15 -60 33 -68 40 -8 7 -32 19 -54 26 -42 15 -76 51 -76 81 0 11 -4 16 -10 13
-13 -8 -2 51 17 88 36 72 154 89 228 33 38 -29 51 -32 32 -5 -17 22 -91 49
-137 49 -21 0 -74 -13 -117 -30 -42 -16 -83 -30 -91 -30 -10 0 -10 -5 -2 -20
13 -24 -6 -60 -32 -60 -17 0 -17 2 0 33 12 22 16 42 11 67 -5 28 -7 30 -9 10
-7 -83 -16 -99 -55 -100 -11 0 -27 -5 -35 -10 -11 -8 -8 -9 13 -4 21 5 26 3
22 -8 -5 -12 42 -87 55 -88 3 0 10 10 15 22 11 23 35 37 35 19 0 -6 -5 -10
-11 -9 -6 2 -14 -3 -17 -11 -3 -8 0 -11 7 -7 7 5 11 -1 11 -15 0 -13 12 -40
26 -60 19 -27 25 -47 22 -75 -3 -37 -5 -39 -39 -41 -48 -4 -63 15 -57 72 3 25
2 42 -3 39 -5 -3 -9 -12 -9 -21 0 -9 -3 -13 -7 -9 -4 4 1 22 12 41 18 34 18
35 -1 56 -17 19 -19 19 -31 3 -11 -14 -10 -22 1 -39 11 -17 12 -25 1 -45 -15
-28 -9 -61 7 -38 7 9 8 7 3 -7 -15 -45 -16 -73 -5 -80 18 -11 37 12 22 27 -7
7 -12 17 -12 22 0 6 7 0 16 -12 8 -12 23 -22 32 -23 14 0 13 -2 -3 -8 -11 -5
-31 -19 -45 -32 -22 -21 -25 -31 -22 -77 4 -53 5 -54 49 -73 53 -23 67 -24 82
-5 10 12 20 11 64 -10 62 -28 120 -31 194 -7 40 12 56 14 65 5 13 -13 121 38
137 65 9 16 10 16 11 2 0 -11 -54 -46 -154 -103 -124 -70 -158 -85 -173 -77
-10 6 -74 38 -143 71 -68 34 -130 66 -137 72 -10 8 -13 64 -13 228 0 213 0
218 -21 223 -23 6 -51 -1 -45 -12 2 -3 -9 -7 -25 -8 -23 -2 -29 2 -29 17 0 16
7 20 34 20 42 0 95 22 120 49 15 16 17 29 11 70 -8 56 -12 63 -78 115 -26 21
-45 42 -42 47 10 15 42 10 49 -6 5 -14 10 -12 36 7 27 20 29 23 13 30 -37 14
-74 8 -99 -17 -32 -33 -26 -56 33 -116 39 -41 44 -51 41 -84 -4 -54 -44 -83
-87 -65 -38 15 -48 43 -27 75 20 30 56 34 56 7 0 -26 -11 -34 -28 -19 -13 10
-14 9 -10 -3 10 -31 78 -19 78 14 0 25 -42 58 -66 53 -19 -3 -24 0 -25 17 -1
20 -2 18 -15 -22 -2 -8 -17 0 -41 24 l-37 37 28 23 c36 32 46 30 48 -8 1 -21
3 -12 7 22 6 51 8 56 39 66 18 5 29 13 26 17 -4 4 -3 7 2 8 5 1 27 3 48 5 21
1 44 8 50 14 16 16 26 12 26 -11z m98 -290 c-6 -16 -12 -29 -13 -27 -6 6 8 58
16 58 4 0 3 -14 -3 -31z m169 -5 c-3 -3 -12 -4 -19 -1 -8 3 -5 6 6 6 11 1 17
-2 13 -5z m-52 -57 c-3 -6 0 -19 5 -27 8 -13 12 -13 27 3 15 15 16 19 4 27
-12 7 -12 11 -2 24 14 17 41 11 41 -9 0 -8 -12 -28 -26 -45 l-27 -31 -28 27
c-16 15 -29 23 -29 18 0 -17 41 -51 100 -83 63 -35 60 -42 -3 -10 -55 27 -107
78 -107 103 0 11 8 28 17 38 17 19 17 19 25 -1 4 -12 5 -27 3 -34z m-116 -91
c8 -10 34 -29 58 -43 53 -31 56 -40 4 -14 -62 32 -91 74 -90 129 l2 47 6 -51
c3 -28 13 -59 20 -68z m451 -108 c-2 -181 -2 -182 -21 -158 -22 29 -23 43 -7
70 10 15 9 22 -5 38 -16 18 -16 20 2 36 19 17 19 20 4 42 -14 22 -14 26 1 43
15 16 15 19 -4 36 -19 17 -21 17 -39 1 -16 -15 -18 -21 -8 -37 9 -15 9 -24 -1
-40 -11 -17 -11 -24 2 -44 12 -18 13 -25 3 -34 -16 -13 -40 22 -33 47 7 22 -8
47 -23 38 -6 -4 -8 -12 -5 -18 9 -13 -23 5 -56 33 l-25 21 33 -18 32 -19 73
73 c39 39 73 72 75 72 1 0 2 -82 2 -182z m-260 -19 c63 -42 91 -82 71 -102
-15 -15 -32 9 -25 38 6 28 -70 83 -91 65 -12 -10 -16 -9 -20 4 -17 55 -24 55
65 -5z m-140 -94 c-5 -5 -10 -19 -13 -30 -4 -11 -4 5 -2 35 3 30 5 69 6 85 1
18 5 7 9 -25 4 -30 4 -59 0 -65z m327 -42 c-2 -44 -8 -68 -17 -71 -10 -4 -11
1 -6 19 4 13 10 45 13 72 8 69 14 57 10 -20z m-411 -2 c1 -26 5 -58 8 -72 6
-22 6 -23 -5 -4 -7 11 -18 24 -26 28 -17 11 -17 33 1 40 10 4 13 16 11 38 -3
17 -1 29 3 25 4 -4 7 -29 8 -55z m227 -18 l38 -38 26 30 c16 20 21 23 14 8
-13 -25 -63 -63 -84 -63 -8 0 -20 7 -28 16 -10 12 -10 20 -1 35 16 25 6 42
-19 36 -11 -3 -17 -1 -13 4 10 17 28 9 67 -28z m-69 -9 c8 -22 -2 -54 -17 -54
-7 0 -23 7 -36 16 l-23 16 29 19 c34 23 39 23 47 3z m33 -60 c-3 -3 -12 -4
-19 -1 -8 3 -5 6 6 6 11 1 17 -2 13 -5z"/>
<path d="M1088 1785 c2 -60 6 -112 8 -114 7 -8 2 164 -6 194 -4 17 -5 -19 -2
-80z"/>
<path d="M1345 1852 c-5 -4 -10 -42 -10 -85 0 -60 3 -76 13 -72 8 3 17 5 22 5
4 0 6 9 3 20 -3 11 -2 28 2 37 6 17 7 17 17 0 5 -10 7 -29 4 -43 -5 -19 -2
-24 12 -24 15 0 19 8 20 38 2 44 -6 58 -33 63 -14 3 -21 13 -23 37 -3 32 -9
38 -27 24z"/>
<path d="M1134 1828 c-5 -7 -9 -46 -9 -86 0 -56 3 -71 13 -67 8 3 17 5 21 5 9
0 1 143 -9 153 -4 5 -12 3 -16 -5z"/>
<path d="M1285 1823 c-20 -46 -13 -133 10 -133 20 0 26 15 16 41 -4 13 -5 36
0 52 13 45 -9 79 -26 40z"/>
<path d="M1645 1800 c-4 -6 -3 -16 3 -22 6 -6 12 -6 17 2 4 6 3 16 -3 22 -6 6
-12 6 -17 -2z"/>
<path d="M1456 1778 c-19 -26 -20 -51 -6 -79 18 -33 70 -18 70 21 -1 13 -3 12
-14 -2 -15 -20 -26 -23 -26 -7 0 6 10 19 23 29 18 15 20 22 11 37 -16 27 -40
27 -58 1z m44 -17 c0 -12 -20 -25 -27 -18 -7 7 6 27 18 27 5 0 9 -4 9 -9z"/>
<path d="M1557 1787 c-9 -7 -17 -32 -19 -59 -3 -41 0 -47 18 -51 18 -3 20 1
20 37 -1 34 2 41 19 41 11 0 20 6 20 14 0 20 -40 32 -58 18z"/>
<path d="M1181 1771 c-12 -8 -11 -16 6 -50 17 -33 18 -43 7 -52 -7 -6 -17 -8
-22 -5 -11 7 -38 -22 -29 -31 13 -12 67 20 86 51 25 40 37 100 19 94 -7 -3
-14 -17 -16 -31 -4 -33 -22 -26 -22 9 0 26 -7 29 -29 15z"/>
<path d="M1623 1718 c-12 -45 -10 -58 11 -58 8 0 19 20 25 44 14 57 14 56 -7
56 -13 0 -21 -12 -29 -42z"/>
<path d="M1696 1738 c-3 -7 -7 -25 -10 -40 -3 -14 -9 -33 -12 -42 -4 -12 0
-16 15 -16 15 0 21 6 21 23 0 13 7 32 16 43 14 18 15 17 11 -16 -2 -19 -6 -41
-8 -49 -2 -8 3 -16 11 -18 11 -3 19 10 28 42 16 61 16 62 -19 74 -41 14 -49
14 -53 -1z"/>
<path d="M1470 1580 c0 -5 12 -10 26 -10 14 0 23 4 19 10 -3 6 -15 10 -26 10
-10 0 -19 -4 -19 -10z"/>
<path d="M1112 1398 c-16 -16 -15 -28 2 -28 11 0 13 -7 6 -31 -11 -39 -5 -56
21 -54 33 2 40 25 18 56 -10 15 -22 36 -27 48 -6 17 -10 19 -20 9z m42 -90
c-7 -10 -34 -10 -34 0 0 4 5 13 12 20 9 9 14 9 19 0 4 -7 5 -16 3 -20z"/>
<path d="M1177 1026 c-6 -16 36 -38 56 -30 8 3 22 -7 32 -22 l18 -28 9 23 c11
30 34 21 31 -13 -1 -22 2 -26 24 -26 18 0 24 4 19 15 -7 18 2 45 15 45 5 0 13
-10 18 -22 8 -23 9 -22 27 9 15 25 24 31 40 27 12 -3 25 0 29 6 13 21 -3 23
-51 6 -65 -22 -149 -20 -203 4 -51 24 -57 24 -64 6z"/>
</g>
</svg>
